<?xml version="1.0" encoding="UTF-8" standalone="no"?>
<!-- Created with Inkscape (http://www.inkscape.org/) -->

<svg
   version="1.1"
   id="svg1"
   width="1111.3541"
   height="1112.218"
   viewBox="0 0 1111.3541 1112.218"
   xmlns="http://www.w3.org/2000/svg"
   xmlns:svg="http://www.w3.org/2000/svg">
  <defs
     id="defs1" />
  <g
     id="g1"
     transform="translate(-1541.2872,600.68879)">
    <path
       style="fill:#ffffff;stroke-width:0.983436"
       d="m 2089.2714,507.83478 c -14.081,-8.02305 -36.7872,-22.59786 -54.9842,-35.29358 -69.0984,-48.20885 -131.9326,-108.15286 -184.4441,-175.96015 l -8.8005,-11.36397 h -147.8051 -147.8051 l -2.0726,-2.5483 c -1.1399,-1.40156 -2.0726,-3.07481 -2.0726,-3.71835 0,-0.64354 6.2658,-21.3664 13.924,-46.05081 7.6582,-24.6844 15.507,-50.10332 17.4418,-56.48648 15.5188,-51.19987 65.9552,-213.423524 67.1363,-215.93735 0.818,-1.740853 2.6439,-3.59052 4.0577,-4.110371 1.4137,-0.519841 10.4643,-0.945173 20.1123,-0.945173 15.1527,0 17.4638,-0.196843 16.9684,-1.445303 -1.3247,-3.338878 -9.9212,-36.215804 -14.0365,-53.682031 -7.2147,-30.621302 -16.0268,-76.097662 -19.584,-101.066772 -7.3422,-51.53697 -10.4035,-84.18189 -12.1203,-129.2456 -0.77,-20.21063 -0.7793,-29.22743 -0.032,-30.57851 0.8456,-1.52823 2.5351,-2.05066 8.3461,-2.5808 70.9953,-6.47702 156.3783,-37.14434 244.7859,-87.92072 66.7221,-38.3214 143.551,-93.49246 201.2412,-144.51178 3.1578,-2.79264 6.1938,-5.07752 6.7468,-5.07752 0.5529,0 6.4704,4.67857 13.15,10.39682 30.0292,25.70744 57.0346,47.04307 87.362,69.02053 128.1937,92.89849 247.3305,146.7755 348.5,157.60143 5.775,0.61797 11.0625,1.5616 11.75,2.09694 1.5563,1.21189 1.6233,14.38971 0.2226,43.77453 -1.8414,38.63251 -4.8951,68.91139 -11.9969,118.95898 -5.0533,35.61141 -16.2549,89.33379 -27.5068,131.921371 -3.0079,11.384761 -5.4689,21.041928 -5.4689,21.460383 0,0.418445 8.5386,0.895993 18.9746,1.061221 17.4599,0.27642 19.1242,0.454819 20.8476,2.234697 1.1316,1.168545 6.3412,16.48342 13.1598,38.6858456 6.2078,20.2133544 18.8213,61.1236364 28.0301,90.9117384 9.2087,29.788104 26.328,85.179834 38.0427,123.092734 l 21.2996,68.93255 -2.0351,2.63626 -2.035,2.63627 -148.4503,0.48357 -148.4502,0.48357 -11.3603,14.50719 c -25.6115,32.70618 -49.7388,59.41779 -79.9323,88.49388 -40.2312,38.74223 -77.1473,68.13719 -124.5912,99.20753 -15.9526,10.44721 -37.8136,23.62003 -39.1987,23.62003 -0.4581,0 -3.7509,-1.66252 -7.3171,-3.6945 z m 20.5599,-61.59503 c 61.8496,-36.69826 123.6763,-88.53188 175.3395,-146.99905 6.1104,-6.91509 11.1113,-12.89931 11.1131,-13.29826 0,-0.39895 -89.7717,-0.72536 -199.4967,-0.72536 -109.725,0 -199.5,0.33896 -199.5,0.75326 0,1.26762 21.2533,24.92619 37.7563,42.02922 42.3338,43.87324 93.3119,84.70614 146.2437,117.13959 7.4251,4.54955 14.1316,8.29212 14.9036,8.31668 0.772,0.0241 6.9102,-3.22263 13.6405,-7.21608 z m -15.3006,-75.60394 c 0.2539,-69.7005 0.2772,-70.42797 2.2565,-70.42797 1.9816,0 2,0.64477 2,70.1181 v 70.1181 l -2.2565,0.30987 -2.2566,0.30988 z M 1916.2872,139.19805 V 64.747811 l 20.25,-0.261806 20.25,-0.261816 0.2716,-18.617564 0.2716,-18.617563 h -74.5432 -74.5432 l 0.2716,18.617563 0.2716,18.617564 19.75,0.262232 19.75,0.262232 v 74.449807 74.44981 h 34 34 z m 156.4348,72.27414 c 0.2601,-1.19685 1.2305,-8.81312 2.1566,-16.92506 l 1.6837,-14.74898 h 12.17 12.17 l 1.2326,12.81468 c 0.678,7.04808 1.4907,14.66437 1.8061,16.92506 l 0.5733,4.11038 h 34.8865 c 19.1875,0 34.8661,-0.32641 34.8412,-0.72536 -0.025,-0.39895 -8.716,-42.28847 -19.3135,-93.08782 l -19.2683,-92.362455 -49.531,-0.250733 -49.531,-0.250722 -1.5898,8.955038 c -0.8744,4.925278 -3.6724,20.053049 -6.2178,33.617274 -2.5453,13.564225 -5.9187,31.625678 -7.4963,40.136568 -1.5777,8.51089 -6.4997,34.91369 -10.9378,58.6729 -4.4381,23.7592 -8.0693,43.67033 -8.0693,44.24694 0,0.73308 10.5202,1.04837 34.981,1.04837 h 34.9809 z m 4.0328,-71.08524 c 0.7063,-6.58139 9.8495,-59.721432 11.3573,-66.007727 0.8723,-3.636905 0.7616,-4.289177 4.7601,28.047237 1.8399,14.8792 5.2884,39.36978 5.958,42.31264 0.4913,2.15944 0.4061,2.17609 -11.1404,2.17609 h -11.6356 z m 211.6114,34.33369 0.079,-38.92763 13.5044,38.92763 13.5044,38.92763 h 35.43 35.4301 l -1.5836,-3.62681 c -0.8711,-1.99473 -10.5617,-25.06879 -21.5348,-51.2757 l -19.9511,-47.64891 19.3915,-42.067125 19.3915,-42.067125 -32.0521,0.255018 -32.0521,0.255017 -14.568,34.918792 -14.5681,34.918793 -0.2623,-35.160579 -0.2623,-35.160579 h -33.9877 -33.9877 v 93.329598 93.32961 h 34 34 z m 183.2092,-233.082226 c 17.877,-66.699134 29.1285,-130.516864 35.1961,-199.629734 1.3045,-14.8595 3.41,-55.36865 3.4915,-67.17729 l 0.024,-3.5015 -11.25,-1.17554 c -93.828,-9.80431 -208.2523,-63.14223 -328.7498,-153.24415 -22.2725,-16.65424 -53.9332,-42.20193 -71.1889,-57.44378 l -2.6888,-2.37508 -13.3112,11.52852 c -44.2938,38.36208 -101.1932,79.72695 -151.8111,110.36393 -86.6118,52.42277 -164.3582,82.54282 -234.198,90.73166 -7.3161,0.85783 -13.4824,1.7264 -13.703,1.93018 -0.6813,0.6295 -0.073,31.96584 0.9373,48.27453 4.5052,72.73064 15.9905,142.83647 35.4802,216.568839 2.5204,9.53521 4.8119,17.695506 5.0921,18.13399 0.2802,0.438495 167.5666,0.797257 371.7476,0.797257 h 371.2381 z m -390.0382,-12.825132 c -7.8375,-5.014053 -14.2491,-9.6742 -14.248,-10.355884 0,-0.681683 2.0281,-6.206089 4.5047,-12.276462 2.4765,-6.070371 4.3652,-11.170006 4.1972,-11.332536 -0.168,-0.16251 -5.4099,3.37666 -11.6487,7.864841 -6.2387,4.488168 -11.6881,7.954124 -12.1097,7.702105 -1.1264,-0.673298 -20.2532,-33.358676 -19.7855,-33.811016 0.2187,-0.2115 4.8846,0.0452 10.3688,0.57068 5.4842,0.52536 29.6474,0.96952 53.696,0.98702 40.2436,0.0293 47.0524,-0.16153 59.6129,-1.67058 3.415,-0.41029 4.2658,-0.23021 4,0.84662 -0.4761,1.92861 -19.1662,33.599246 -19.809,33.566585 -0.2908,-0.0148 -5.0287,-3.303117 -10.5287,-7.307421 -5.5,-4.004304 -10.7387,-7.681634 -11.6417,-8.171844 -1.4465,-0.78531 1.3456,7.440801 7.5978,22.385211 0.5032,1.20283 -2.5935,3.600058 -13.5323,10.475635 -7.8017,4.903731 -14.6887,9.079587 -15.3044,9.27968 -0.6156,0.200103 -7.5319,-3.73859 -15.3694,-8.752634 z m -33.75,-61.487382 c -49.465,-3.50105 -97.3705,-14.81457 -135.7875,-32.06807 -5.0375,-2.2624 -8.4132,-4.30856 -7.9104,-4.79485 0.4824,-0.46656 8.7118,-1.13575 18.2875,-1.48707 9.5757,-0.35134 16.5104,-0.80177 15.4104,-1.00096 -37.8405,-6.85239 -62.4898,-17.38675 -79.3332,-33.90456 -5.4659,-5.36028 -13.1668,-16.42396 -13.1668,-18.91649 0,-1.9501 28.5433,1.55865 73.4676,9.0312 12.6322,2.10118 23.0869,3.70499 23.2327,3.56402 0.1457,-0.14098 -2.7647,-1.25667 -6.4676,-2.47929 -14.6317,-4.831 -28.4674,-10.49787 -44.2327,-18.11686 -41.1169,-19.87086 -69.3398,-44.27173 -83.9842,-72.61082 -3.898,-7.54327 -7.8164,-19.14239 -6.7989,-20.12639 0.3002,-0.29038 8.1368,3.86766 17.4145,9.2401 28.6107,16.56753 62.4362,32.30726 80.0637,37.25541 9.6073,2.69682 24.1138,5.37562 44.3049,8.18142 67.3954,9.36542 93.5848,18.89027 102.0592,37.11797 l 1.8601,4.0011 1.6861,-3.86859 c 0.9273,-2.12772 7.8207,-18.2307 15.3187,-35.78441 l 13.6327,-31.91582 31.295,-0.25566 c 35.8849,-0.29317 37.3858,-0.0307 43.0466,7.52701 2.7349,3.65149 7.1016,13.16436 7.1016,15.47105 0,0.52342 -7.5571,1.02088 -17.8143,1.17265 l -17.8143,0.26361 11.9412,23.69507 11.9411,23.69509 1.8659,-4.18735 c 2.727,-6.1194 11.2392,-13.65219 20.206,-17.88091 16.2526,-7.66474 36.2419,-12.41657 77.6744,-18.46465 28.1829,-4.11397 33.0985,-4.95955 43.5,-7.48295 20.9521,-5.08292 56.4869,-21.45244 91.397,-42.1031 5.7183,-3.38261 10.6327,-5.92221 10.9208,-5.64357 1.1078,1.07145 -2.056,10.91251 -6.2046,19.2994 -11.1261,22.49241 -33.2453,44.32419 -62.8928,62.07564 -16.7855,10.05032 -49.295,24.54109 -68.0374,30.32699 -2.0993,0.64809 -3.6743,1.30519 -3.5,1.46023 0.1744,0.15504 10.442,-1.41 22.817,-3.47785 43.4643,-7.26286 73,-10.92655 73,-9.05509 0,1.69246 -3.3974,7.82296 -6.7839,12.24134 -13.9698,18.22632 -41.2332,32.18945 -75.7161,38.77848 l -12,2.29298 17.2187,0.57415 c 9.4703,0.3158 17.7501,0.89181 18.3997,1.28006 2.9419,1.75845 -26.4286,13.55585 -53.6184,21.53716 -26.5037,7.77994 -57.3781,13.04301 -91.4499,15.58924 -15.3758,1.14907 -79.0987,1.11835 -95.5501,-0.046 z m 46.5,-295.86268 v -101.68488 l 2.25,0.30906 2.25,0.30905 V -428.53678 -327.47 l -2.25,0.30905 -2.25,0.30905 z"
       id="path1485601" />
  </g>
</svg>
